<mxfile host="Electron" agent="Mozilla/5.0 (Windows NT 10.0; Win64; x64) AppleWebKit/537.36 (KHTML, like Gecko) draw.io/24.7.17 Chrome/128.0.6613.36 Electron/32.0.1 Safari/537.36" version="24.7.17">
  <diagram id="C5RBs43oDa-KdzZeNtuy" name="Page-1">
    <mxGraphModel dx="1500" dy="956" grid="1" gridSize="10" guides="1" tooltips="1" connect="1" arrows="1" fold="1" page="1" pageScale="1" pageWidth="827" pageHeight="1169" math="0" shadow="0">
      <root>
        <mxCell id="WIyWlLk6GJQsqaUBKTNV-0" />
        <mxCell id="WIyWlLk6GJQsqaUBKTNV-1" parent="WIyWlLk6GJQsqaUBKTNV-0" />
        <mxCell id="CD8L7suRbJ-PH4t4VhtS-4" value="" style="edgeStyle=orthogonalEdgeStyle;rounded=0;orthogonalLoop=1;jettySize=auto;html=1;" edge="1" parent="WIyWlLk6GJQsqaUBKTNV-1" source="CD8L7suRbJ-PH4t4VhtS-0" target="CD8L7suRbJ-PH4t4VhtS-3">
          <mxGeometry relative="1" as="geometry" />
        </mxCell>
        <mxCell id="CD8L7suRbJ-PH4t4VhtS-0" value="Start" style="strokeWidth=2;html=1;shape=mxgraph.flowchart.start_1;whiteSpace=wrap;" vertex="1" parent="WIyWlLk6GJQsqaUBKTNV-1">
          <mxGeometry x="370" y="70" width="100" height="60" as="geometry" />
        </mxCell>
        <mxCell id="CD8L7suRbJ-PH4t4VhtS-6" value="" style="edgeStyle=orthogonalEdgeStyle;rounded=0;orthogonalLoop=1;jettySize=auto;html=1;" edge="1" parent="WIyWlLk6GJQsqaUBKTNV-1" source="CD8L7suRbJ-PH4t4VhtS-3" target="CD8L7suRbJ-PH4t4VhtS-5">
          <mxGeometry relative="1" as="geometry" />
        </mxCell>
        <mxCell id="CD8L7suRbJ-PH4t4VhtS-3" value="&quot;Selamat Datang di pembelian Manga! Mau Beli apa?&quot;" style="shape=parallelogram;perimeter=parallelogramPerimeter;whiteSpace=wrap;html=1;fixedSize=1;strokeWidth=2;" vertex="1" parent="WIyWlLk6GJQsqaUBKTNV-1">
          <mxGeometry x="360" y="190" width="120" height="60" as="geometry" />
        </mxCell>
        <mxCell id="CD8L7suRbJ-PH4t4VhtS-8" value="False" style="edgeStyle=orthogonalEdgeStyle;rounded=0;orthogonalLoop=1;jettySize=auto;html=1;" edge="1" parent="WIyWlLk6GJQsqaUBKTNV-1" source="CD8L7suRbJ-PH4t4VhtS-5" target="CD8L7suRbJ-PH4t4VhtS-7">
          <mxGeometry relative="1" as="geometry" />
        </mxCell>
        <mxCell id="CD8L7suRbJ-PH4t4VhtS-5" value="Sign Up" style="rhombus;whiteSpace=wrap;html=1;strokeWidth=2;" vertex="1" parent="WIyWlLk6GJQsqaUBKTNV-1">
          <mxGeometry x="580" y="180" width="80" height="80" as="geometry" />
        </mxCell>
        <mxCell id="CD8L7suRbJ-PH4t4VhtS-12" value="True" style="edgeStyle=orthogonalEdgeStyle;rounded=0;orthogonalLoop=1;jettySize=auto;html=1;" edge="1" parent="WIyWlLk6GJQsqaUBKTNV-1" source="CD8L7suRbJ-PH4t4VhtS-7" target="CD8L7suRbJ-PH4t4VhtS-11">
          <mxGeometry relative="1" as="geometry" />
        </mxCell>
        <mxCell id="CD8L7suRbJ-PH4t4VhtS-125" value="True" style="edgeStyle=orthogonalEdgeStyle;rounded=0;orthogonalLoop=1;jettySize=auto;html=1;" edge="1" parent="WIyWlLk6GJQsqaUBKTNV-1" source="CD8L7suRbJ-PH4t4VhtS-7" target="CD8L7suRbJ-PH4t4VhtS-124">
          <mxGeometry relative="1" as="geometry" />
        </mxCell>
        <mxCell id="CD8L7suRbJ-PH4t4VhtS-7" value="Login" style="rhombus;whiteSpace=wrap;html=1;strokeWidth=2;" vertex="1" parent="WIyWlLk6GJQsqaUBKTNV-1">
          <mxGeometry x="740" y="180" width="80" height="80" as="geometry" />
        </mxCell>
        <mxCell id="CD8L7suRbJ-PH4t4VhtS-22" value="True" style="edgeStyle=orthogonalEdgeStyle;rounded=0;orthogonalLoop=1;jettySize=auto;html=1;" edge="1" parent="WIyWlLk6GJQsqaUBKTNV-1" source="CD8L7suRbJ-PH4t4VhtS-11" target="CD8L7suRbJ-PH4t4VhtS-21">
          <mxGeometry relative="1" as="geometry" />
        </mxCell>
        <mxCell id="CD8L7suRbJ-PH4t4VhtS-24" value="True" style="edgeStyle=orthogonalEdgeStyle;rounded=0;orthogonalLoop=1;jettySize=auto;html=1;" edge="1" parent="WIyWlLk6GJQsqaUBKTNV-1" source="CD8L7suRbJ-PH4t4VhtS-11" target="CD8L7suRbJ-PH4t4VhtS-23">
          <mxGeometry relative="1" as="geometry" />
        </mxCell>
        <mxCell id="CD8L7suRbJ-PH4t4VhtS-11" value="Input :&amp;nbsp;&lt;div&gt;Username&lt;/div&gt;&lt;div&gt;Password&lt;/div&gt;" style="shape=parallelogram;perimeter=parallelogramPerimeter;whiteSpace=wrap;html=1;fixedSize=1;strokeWidth=2;" vertex="1" parent="WIyWlLk6GJQsqaUBKTNV-1">
          <mxGeometry x="720" y="340" width="120" height="60" as="geometry" />
        </mxCell>
        <mxCell id="CD8L7suRbJ-PH4t4VhtS-64" value="True" style="edgeStyle=orthogonalEdgeStyle;rounded=0;orthogonalLoop=1;jettySize=auto;html=1;" edge="1" parent="WIyWlLk6GJQsqaUBKTNV-1" source="CD8L7suRbJ-PH4t4VhtS-21" target="CD8L7suRbJ-PH4t4VhtS-63">
          <mxGeometry relative="1" as="geometry" />
        </mxCell>
        <mxCell id="CD8L7suRbJ-PH4t4VhtS-21" value="Admin Login" style="rhombus;whiteSpace=wrap;html=1;strokeWidth=2;" vertex="1" parent="WIyWlLk6GJQsqaUBKTNV-1">
          <mxGeometry x="490" y="330" width="80" height="80" as="geometry" />
        </mxCell>
        <mxCell id="CD8L7suRbJ-PH4t4VhtS-23" value="User Login" style="rhombus;whiteSpace=wrap;html=1;strokeWidth=2;" vertex="1" parent="WIyWlLk6GJQsqaUBKTNV-1">
          <mxGeometry x="940" y="330" width="80" height="80" as="geometry" />
        </mxCell>
        <mxCell id="CD8L7suRbJ-PH4t4VhtS-32" value="" style="edgeStyle=orthogonalEdgeStyle;rounded=0;orthogonalLoop=1;jettySize=auto;html=1;" edge="1" parent="WIyWlLk6GJQsqaUBKTNV-1" source="CD8L7suRbJ-PH4t4VhtS-29" target="CD8L7suRbJ-PH4t4VhtS-31">
          <mxGeometry relative="1" as="geometry" />
        </mxCell>
        <mxCell id="CD8L7suRbJ-PH4t4VhtS-29" value="Opsi" style="whiteSpace=wrap;html=1;strokeWidth=2;" vertex="1" parent="WIyWlLk6GJQsqaUBKTNV-1">
          <mxGeometry x="920" y="520" width="120" height="60" as="geometry" />
        </mxCell>
        <mxCell id="CD8L7suRbJ-PH4t4VhtS-34" value="False" style="edgeStyle=orthogonalEdgeStyle;rounded=0;orthogonalLoop=1;jettySize=auto;html=1;" edge="1" parent="WIyWlLk6GJQsqaUBKTNV-1" source="CD8L7suRbJ-PH4t4VhtS-31" target="CD8L7suRbJ-PH4t4VhtS-33">
          <mxGeometry relative="1" as="geometry" />
        </mxCell>
        <mxCell id="CD8L7suRbJ-PH4t4VhtS-42" value="True" style="edgeStyle=orthogonalEdgeStyle;rounded=0;orthogonalLoop=1;jettySize=auto;html=1;" edge="1" parent="WIyWlLk6GJQsqaUBKTNV-1" source="CD8L7suRbJ-PH4t4VhtS-31" target="CD8L7suRbJ-PH4t4VhtS-41">
          <mxGeometry relative="1" as="geometry" />
        </mxCell>
        <mxCell id="CD8L7suRbJ-PH4t4VhtS-31" value="List Manga" style="rhombus;whiteSpace=wrap;html=1;strokeWidth=2;" vertex="1" parent="WIyWlLk6GJQsqaUBKTNV-1">
          <mxGeometry x="940" y="640" width="80" height="80" as="geometry" />
        </mxCell>
        <mxCell id="CD8L7suRbJ-PH4t4VhtS-36" value="False" style="edgeStyle=orthogonalEdgeStyle;rounded=0;orthogonalLoop=1;jettySize=auto;html=1;" edge="1" parent="WIyWlLk6GJQsqaUBKTNV-1" source="CD8L7suRbJ-PH4t4VhtS-33" target="CD8L7suRbJ-PH4t4VhtS-35">
          <mxGeometry relative="1" as="geometry" />
        </mxCell>
        <mxCell id="CD8L7suRbJ-PH4t4VhtS-46" value="True" style="edgeStyle=orthogonalEdgeStyle;rounded=0;orthogonalLoop=1;jettySize=auto;html=1;" edge="1" parent="WIyWlLk6GJQsqaUBKTNV-1" source="CD8L7suRbJ-PH4t4VhtS-33" target="CD8L7suRbJ-PH4t4VhtS-45">
          <mxGeometry relative="1" as="geometry" />
        </mxCell>
        <mxCell id="CD8L7suRbJ-PH4t4VhtS-33" value="Tambah Manga Ke Keranjang" style="rhombus;whiteSpace=wrap;html=1;strokeWidth=2;" vertex="1" parent="WIyWlLk6GJQsqaUBKTNV-1">
          <mxGeometry x="1120" y="640" width="80" height="80" as="geometry" />
        </mxCell>
        <mxCell id="CD8L7suRbJ-PH4t4VhtS-38" value="False" style="edgeStyle=orthogonalEdgeStyle;rounded=0;orthogonalLoop=1;jettySize=auto;html=1;" edge="1" parent="WIyWlLk6GJQsqaUBKTNV-1" source="CD8L7suRbJ-PH4t4VhtS-35" target="CD8L7suRbJ-PH4t4VhtS-37">
          <mxGeometry relative="1" as="geometry" />
        </mxCell>
        <mxCell id="CD8L7suRbJ-PH4t4VhtS-48" value="True" style="edgeStyle=orthogonalEdgeStyle;rounded=0;orthogonalLoop=1;jettySize=auto;html=1;" edge="1" parent="WIyWlLk6GJQsqaUBKTNV-1" source="CD8L7suRbJ-PH4t4VhtS-35" target="CD8L7suRbJ-PH4t4VhtS-47">
          <mxGeometry relative="1" as="geometry" />
        </mxCell>
        <mxCell id="CD8L7suRbJ-PH4t4VhtS-35" value="Lihat Keranjang" style="rhombus;whiteSpace=wrap;html=1;strokeWidth=2;" vertex="1" parent="WIyWlLk6GJQsqaUBKTNV-1">
          <mxGeometry x="1300" y="640" width="80" height="80" as="geometry" />
        </mxCell>
        <mxCell id="CD8L7suRbJ-PH4t4VhtS-40" value="False" style="edgeStyle=orthogonalEdgeStyle;rounded=0;orthogonalLoop=1;jettySize=auto;html=1;" edge="1" parent="WIyWlLk6GJQsqaUBKTNV-1" source="CD8L7suRbJ-PH4t4VhtS-37" target="CD8L7suRbJ-PH4t4VhtS-39">
          <mxGeometry relative="1" as="geometry" />
        </mxCell>
        <mxCell id="CD8L7suRbJ-PH4t4VhtS-50" value="True" style="edgeStyle=orthogonalEdgeStyle;rounded=0;orthogonalLoop=1;jettySize=auto;html=1;" edge="1" parent="WIyWlLk6GJQsqaUBKTNV-1" source="CD8L7suRbJ-PH4t4VhtS-37" target="CD8L7suRbJ-PH4t4VhtS-49">
          <mxGeometry relative="1" as="geometry" />
        </mxCell>
        <mxCell id="CD8L7suRbJ-PH4t4VhtS-37" value="Hapus Manga Dari Keranjang" style="rhombus;whiteSpace=wrap;html=1;strokeWidth=2;" vertex="1" parent="WIyWlLk6GJQsqaUBKTNV-1">
          <mxGeometry x="1490" y="640" width="80" height="80" as="geometry" />
        </mxCell>
        <mxCell id="CD8L7suRbJ-PH4t4VhtS-54" value="True" style="edgeStyle=orthogonalEdgeStyle;rounded=0;orthogonalLoop=1;jettySize=auto;html=1;" edge="1" parent="WIyWlLk6GJQsqaUBKTNV-1" source="CD8L7suRbJ-PH4t4VhtS-39" target="CD8L7suRbJ-PH4t4VhtS-53">
          <mxGeometry relative="1" as="geometry" />
        </mxCell>
        <mxCell id="CD8L7suRbJ-PH4t4VhtS-58" value="False" style="edgeStyle=orthogonalEdgeStyle;rounded=0;orthogonalLoop=1;jettySize=auto;html=1;" edge="1" parent="WIyWlLk6GJQsqaUBKTNV-1" source="CD8L7suRbJ-PH4t4VhtS-39" target="CD8L7suRbJ-PH4t4VhtS-57">
          <mxGeometry relative="1" as="geometry" />
        </mxCell>
        <mxCell id="CD8L7suRbJ-PH4t4VhtS-39" value="Selesaikan Pembelian&amp;nbsp;" style="rhombus;whiteSpace=wrap;html=1;strokeWidth=2;" vertex="1" parent="WIyWlLk6GJQsqaUBKTNV-1">
          <mxGeometry x="1690" y="640" width="80" height="80" as="geometry" />
        </mxCell>
        <mxCell id="CD8L7suRbJ-PH4t4VhtS-41" value="Pilih Manga" style="whiteSpace=wrap;html=1;strokeWidth=2;" vertex="1" parent="WIyWlLk6GJQsqaUBKTNV-1">
          <mxGeometry x="920" y="800" width="120" height="60" as="geometry" />
        </mxCell>
        <mxCell id="CD8L7suRbJ-PH4t4VhtS-44" value="True" style="endArrow=classic;html=1;rounded=0;exitX=0.5;exitY=1;exitDx=0;exitDy=0;entryX=0.5;entryY=0;entryDx=0;entryDy=0;" edge="1" parent="WIyWlLk6GJQsqaUBKTNV-1" source="CD8L7suRbJ-PH4t4VhtS-23" target="CD8L7suRbJ-PH4t4VhtS-29">
          <mxGeometry width="50" height="50" relative="1" as="geometry">
            <mxPoint x="970" y="490" as="sourcePoint" />
            <mxPoint x="1020" y="440" as="targetPoint" />
          </mxGeometry>
        </mxCell>
        <mxCell id="CD8L7suRbJ-PH4t4VhtS-45" value="Tambah Manga List" style="whiteSpace=wrap;html=1;strokeWidth=2;" vertex="1" parent="WIyWlLk6GJQsqaUBKTNV-1">
          <mxGeometry x="1100" y="800" width="120" height="60" as="geometry" />
        </mxCell>
        <mxCell id="CD8L7suRbJ-PH4t4VhtS-47" value="Manga List" style="shape=parallelogram;perimeter=parallelogramPerimeter;whiteSpace=wrap;html=1;fixedSize=1;strokeWidth=2;" vertex="1" parent="WIyWlLk6GJQsqaUBKTNV-1">
          <mxGeometry x="1280" y="800" width="120" height="60" as="geometry" />
        </mxCell>
        <mxCell id="CD8L7suRbJ-PH4t4VhtS-49" value="Menghapus Manga Dari Keranjang" style="whiteSpace=wrap;html=1;strokeWidth=2;" vertex="1" parent="WIyWlLk6GJQsqaUBKTNV-1">
          <mxGeometry x="1470" y="800" width="120" height="60" as="geometry" />
        </mxCell>
        <mxCell id="CD8L7suRbJ-PH4t4VhtS-56" value="" style="edgeStyle=orthogonalEdgeStyle;rounded=0;orthogonalLoop=1;jettySize=auto;html=1;" edge="1" parent="WIyWlLk6GJQsqaUBKTNV-1" source="CD8L7suRbJ-PH4t4VhtS-53" target="CD8L7suRbJ-PH4t4VhtS-55">
          <mxGeometry relative="1" as="geometry" />
        </mxCell>
        <mxCell id="CD8L7suRbJ-PH4t4VhtS-53" value="&amp;nbsp;Transaksi Pembelian" style="whiteSpace=wrap;html=1;strokeWidth=2;" vertex="1" parent="WIyWlLk6GJQsqaUBKTNV-1">
          <mxGeometry x="1670" y="800" width="120" height="60" as="geometry" />
        </mxCell>
        <mxCell id="CD8L7suRbJ-PH4t4VhtS-55" value="Terimakasih Telah Berbelanja" style="shape=parallelogram;perimeter=parallelogramPerimeter;whiteSpace=wrap;html=1;fixedSize=1;strokeWidth=2;" vertex="1" parent="WIyWlLk6GJQsqaUBKTNV-1">
          <mxGeometry x="1670" y="940" width="120" height="60" as="geometry" />
        </mxCell>
        <mxCell id="CD8L7suRbJ-PH4t4VhtS-60" value="True" style="edgeStyle=orthogonalEdgeStyle;rounded=0;orthogonalLoop=1;jettySize=auto;html=1;" edge="1" parent="WIyWlLk6GJQsqaUBKTNV-1" source="CD8L7suRbJ-PH4t4VhtS-57" target="CD8L7suRbJ-PH4t4VhtS-59">
          <mxGeometry relative="1" as="geometry" />
        </mxCell>
        <mxCell id="CD8L7suRbJ-PH4t4VhtS-62" value="False" style="edgeStyle=orthogonalEdgeStyle;rounded=0;orthogonalLoop=1;jettySize=auto;html=1;" edge="1" parent="WIyWlLk6GJQsqaUBKTNV-1" source="CD8L7suRbJ-PH4t4VhtS-57" target="CD8L7suRbJ-PH4t4VhtS-61">
          <mxGeometry relative="1" as="geometry" />
        </mxCell>
        <mxCell id="CD8L7suRbJ-PH4t4VhtS-57" value="Logout" style="rhombus;whiteSpace=wrap;html=1;strokeWidth=2;" vertex="1" parent="WIyWlLk6GJQsqaUBKTNV-1">
          <mxGeometry x="1890" y="640" width="80" height="80" as="geometry" />
        </mxCell>
        <mxCell id="CD8L7suRbJ-PH4t4VhtS-59" value="Output&lt;div&gt;Terimakasih Telah Mengunjungi&lt;/div&gt;" style="shape=parallelogram;perimeter=parallelogramPerimeter;whiteSpace=wrap;html=1;fixedSize=1;strokeWidth=2;" vertex="1" parent="WIyWlLk6GJQsqaUBKTNV-1">
          <mxGeometry x="1870" y="800" width="120" height="60" as="geometry" />
        </mxCell>
        <mxCell id="CD8L7suRbJ-PH4t4VhtS-61" value="Output&lt;div&gt;Input Tidak Valid&lt;/div&gt;" style="shape=parallelogram;perimeter=parallelogramPerimeter;whiteSpace=wrap;html=1;fixedSize=1;strokeWidth=2;" vertex="1" parent="WIyWlLk6GJQsqaUBKTNV-1">
          <mxGeometry x="1870" y="480" width="120" height="60" as="geometry" />
        </mxCell>
        <mxCell id="CD8L7suRbJ-PH4t4VhtS-66" value="" style="edgeStyle=orthogonalEdgeStyle;rounded=0;orthogonalLoop=1;jettySize=auto;html=1;" edge="1" parent="WIyWlLk6GJQsqaUBKTNV-1" source="CD8L7suRbJ-PH4t4VhtS-63" target="CD8L7suRbJ-PH4t4VhtS-65">
          <mxGeometry relative="1" as="geometry" />
        </mxCell>
        <mxCell id="CD8L7suRbJ-PH4t4VhtS-63" value="Opsi" style="whiteSpace=wrap;html=1;strokeWidth=2;" vertex="1" parent="WIyWlLk6GJQsqaUBKTNV-1">
          <mxGeometry x="470" y="500" width="120" height="60" as="geometry" />
        </mxCell>
        <mxCell id="CD8L7suRbJ-PH4t4VhtS-68" value="False" style="edgeStyle=orthogonalEdgeStyle;rounded=0;orthogonalLoop=1;jettySize=auto;html=1;" edge="1" parent="WIyWlLk6GJQsqaUBKTNV-1" source="CD8L7suRbJ-PH4t4VhtS-65" target="CD8L7suRbJ-PH4t4VhtS-67">
          <mxGeometry relative="1" as="geometry" />
        </mxCell>
        <mxCell id="CD8L7suRbJ-PH4t4VhtS-80" value="True" style="edgeStyle=orthogonalEdgeStyle;rounded=0;orthogonalLoop=1;jettySize=auto;html=1;" edge="1" parent="WIyWlLk6GJQsqaUBKTNV-1" source="CD8L7suRbJ-PH4t4VhtS-65" target="CD8L7suRbJ-PH4t4VhtS-79">
          <mxGeometry relative="1" as="geometry" />
        </mxCell>
        <mxCell id="CD8L7suRbJ-PH4t4VhtS-65" value="Melihat List Akun Dan Daftar Keranjang" style="rhombus;whiteSpace=wrap;html=1;strokeWidth=2;" vertex="1" parent="WIyWlLk6GJQsqaUBKTNV-1">
          <mxGeometry x="490" y="630" width="80" height="80" as="geometry" />
        </mxCell>
        <mxCell id="CD8L7suRbJ-PH4t4VhtS-70" value="False" style="edgeStyle=orthogonalEdgeStyle;rounded=0;orthogonalLoop=1;jettySize=auto;html=1;" edge="1" parent="WIyWlLk6GJQsqaUBKTNV-1" source="CD8L7suRbJ-PH4t4VhtS-67" target="CD8L7suRbJ-PH4t4VhtS-69">
          <mxGeometry relative="1" as="geometry" />
        </mxCell>
        <mxCell id="CD8L7suRbJ-PH4t4VhtS-82" value="True" style="edgeStyle=orthogonalEdgeStyle;rounded=0;orthogonalLoop=1;jettySize=auto;html=1;" edge="1" parent="WIyWlLk6GJQsqaUBKTNV-1" source="CD8L7suRbJ-PH4t4VhtS-67" target="CD8L7suRbJ-PH4t4VhtS-81">
          <mxGeometry relative="1" as="geometry" />
        </mxCell>
        <mxCell id="CD8L7suRbJ-PH4t4VhtS-67" value="Hapus Akun" style="rhombus;whiteSpace=wrap;html=1;strokeWidth=2;" vertex="1" parent="WIyWlLk6GJQsqaUBKTNV-1">
          <mxGeometry x="340" y="630" width="80" height="80" as="geometry" />
        </mxCell>
        <mxCell id="CD8L7suRbJ-PH4t4VhtS-76" value="True" style="edgeStyle=orthogonalEdgeStyle;rounded=0;orthogonalLoop=1;jettySize=auto;html=1;" edge="1" parent="WIyWlLk6GJQsqaUBKTNV-1" source="CD8L7suRbJ-PH4t4VhtS-69" target="CD8L7suRbJ-PH4t4VhtS-75">
          <mxGeometry relative="1" as="geometry" />
        </mxCell>
        <mxCell id="CD8L7suRbJ-PH4t4VhtS-78" value="False" style="edgeStyle=orthogonalEdgeStyle;rounded=0;orthogonalLoop=1;jettySize=auto;html=1;" edge="1" parent="WIyWlLk6GJQsqaUBKTNV-1" source="CD8L7suRbJ-PH4t4VhtS-69" target="CD8L7suRbJ-PH4t4VhtS-77">
          <mxGeometry relative="1" as="geometry" />
        </mxCell>
        <mxCell id="CD8L7suRbJ-PH4t4VhtS-69" value="Logout" style="rhombus;whiteSpace=wrap;html=1;strokeWidth=2;" vertex="1" parent="WIyWlLk6GJQsqaUBKTNV-1">
          <mxGeometry x="190" y="630" width="80" height="80" as="geometry" />
        </mxCell>
        <mxCell id="CD8L7suRbJ-PH4t4VhtS-75" value="Output&lt;div&gt;Logout Telah Berhasil&lt;/div&gt;" style="shape=parallelogram;perimeter=parallelogramPerimeter;whiteSpace=wrap;html=1;fixedSize=1;strokeWidth=2;" vertex="1" parent="WIyWlLk6GJQsqaUBKTNV-1">
          <mxGeometry x="170" y="800" width="120" height="60" as="geometry" />
        </mxCell>
        <mxCell id="CD8L7suRbJ-PH4t4VhtS-77" value="Opsi Tidak Valid Silahkan Coba Lagi" style="shape=parallelogram;perimeter=parallelogramPerimeter;whiteSpace=wrap;html=1;fixedSize=1;strokeWidth=2;" vertex="1" parent="WIyWlLk6GJQsqaUBKTNV-1">
          <mxGeometry x="170" y="470" width="120" height="60" as="geometry" />
        </mxCell>
        <mxCell id="CD8L7suRbJ-PH4t4VhtS-79" value="Daftar Akun&amp;nbsp;" style="whiteSpace=wrap;html=1;strokeWidth=2;" vertex="1" parent="WIyWlLk6GJQsqaUBKTNV-1">
          <mxGeometry x="470" y="800" width="120" height="60" as="geometry" />
        </mxCell>
        <mxCell id="CD8L7suRbJ-PH4t4VhtS-86" value="" style="edgeStyle=orthogonalEdgeStyle;rounded=0;orthogonalLoop=1;jettySize=auto;html=1;" edge="1" parent="WIyWlLk6GJQsqaUBKTNV-1" source="CD8L7suRbJ-PH4t4VhtS-81" target="CD8L7suRbJ-PH4t4VhtS-85">
          <mxGeometry relative="1" as="geometry" />
        </mxCell>
        <mxCell id="CD8L7suRbJ-PH4t4VhtS-81" value="Masukan Username Yg ingin di hapus" style="whiteSpace=wrap;html=1;strokeWidth=2;" vertex="1" parent="WIyWlLk6GJQsqaUBKTNV-1">
          <mxGeometry x="320" y="800" width="120" height="60" as="geometry" />
        </mxCell>
        <mxCell id="CD8L7suRbJ-PH4t4VhtS-85" value="Output&lt;div&gt;Username Telah Di hapus&lt;/div&gt;" style="shape=parallelogram;perimeter=parallelogramPerimeter;whiteSpace=wrap;html=1;fixedSize=1;strokeWidth=2;" vertex="1" parent="WIyWlLk6GJQsqaUBKTNV-1">
          <mxGeometry x="320" y="940" width="120" height="60" as="geometry" />
        </mxCell>
        <mxCell id="CD8L7suRbJ-PH4t4VhtS-87" value="" style="endArrow=classic;html=1;rounded=0;exitX=1;exitY=1;exitDx=0;exitDy=0;" edge="1" parent="WIyWlLk6GJQsqaUBKTNV-1" source="CD8L7suRbJ-PH4t4VhtS-85">
          <mxGeometry width="50" height="50" relative="1" as="geometry">
            <mxPoint x="470" y="1000" as="sourcePoint" />
            <mxPoint x="460" y="990" as="targetPoint" />
          </mxGeometry>
        </mxCell>
        <mxCell id="CD8L7suRbJ-PH4t4VhtS-88" value="" style="endArrow=classic;html=1;rounded=0;exitX=1;exitY=1;exitDx=0;exitDy=0;" edge="1" parent="WIyWlLk6GJQsqaUBKTNV-1" source="CD8L7suRbJ-PH4t4VhtS-47">
          <mxGeometry width="50" height="50" relative="1" as="geometry">
            <mxPoint x="1420" y="840" as="sourcePoint" />
            <mxPoint x="1430" y="851" as="targetPoint" />
          </mxGeometry>
        </mxCell>
        <mxCell id="CD8L7suRbJ-PH4t4VhtS-90" value="End" style="strokeWidth=2;html=1;shape=mxgraph.flowchart.start_1;whiteSpace=wrap;" vertex="1" parent="WIyWlLk6GJQsqaUBKTNV-1">
          <mxGeometry x="810" y="1440" width="100" height="60" as="geometry" />
        </mxCell>
        <mxCell id="CD8L7suRbJ-PH4t4VhtS-105" value="" style="endArrow=none;html=1;rounded=0;exitX=0.5;exitY=1;exitDx=0;exitDy=0;" edge="1" parent="WIyWlLk6GJQsqaUBKTNV-1" source="CD8L7suRbJ-PH4t4VhtS-75">
          <mxGeometry width="50" height="50" relative="1" as="geometry">
            <mxPoint x="220" y="1040" as="sourcePoint" />
            <mxPoint x="380" y="1150" as="targetPoint" />
            <Array as="points">
              <mxPoint x="230" y="1150" />
            </Array>
          </mxGeometry>
        </mxCell>
        <mxCell id="CD8L7suRbJ-PH4t4VhtS-106" value="" style="endArrow=none;html=1;rounded=0;exitX=0.5;exitY=1;exitDx=0;exitDy=0;" edge="1" parent="WIyWlLk6GJQsqaUBKTNV-1" source="CD8L7suRbJ-PH4t4VhtS-85">
          <mxGeometry width="50" height="50" relative="1" as="geometry">
            <mxPoint x="370" y="1050" as="sourcePoint" />
            <mxPoint x="720" y="440" as="targetPoint" />
            <Array as="points">
              <mxPoint x="380" y="1150" />
              <mxPoint x="720" y="1150" />
            </Array>
          </mxGeometry>
        </mxCell>
        <mxCell id="CD8L7suRbJ-PH4t4VhtS-107" value="" style="endArrow=none;html=1;rounded=0;exitX=0.5;exitY=1;exitDx=0;exitDy=0;" edge="1" parent="WIyWlLk6GJQsqaUBKTNV-1" source="CD8L7suRbJ-PH4t4VhtS-79">
          <mxGeometry width="50" height="50" relative="1" as="geometry">
            <mxPoint x="540" y="980" as="sourcePoint" />
            <mxPoint x="530" y="1150" as="targetPoint" />
          </mxGeometry>
        </mxCell>
        <mxCell id="CD8L7suRbJ-PH4t4VhtS-108" value="" style="endArrow=classic;html=1;rounded=0;" edge="1" parent="WIyWlLk6GJQsqaUBKTNV-1">
          <mxGeometry width="50" height="50" relative="1" as="geometry">
            <mxPoint x="720" y="440" as="sourcePoint" />
            <mxPoint x="530" y="440" as="targetPoint" />
          </mxGeometry>
        </mxCell>
        <mxCell id="CD8L7suRbJ-PH4t4VhtS-109" value="" style="endArrow=none;html=1;rounded=0;exitX=0.5;exitY=1;exitDx=0;exitDy=0;" edge="1" parent="WIyWlLk6GJQsqaUBKTNV-1" source="CD8L7suRbJ-PH4t4VhtS-59">
          <mxGeometry width="50" height="50" relative="1" as="geometry">
            <mxPoint x="1890" y="1000" as="sourcePoint" />
            <mxPoint x="1720" y="1150" as="targetPoint" />
            <Array as="points">
              <mxPoint x="1930" y="1150" />
            </Array>
          </mxGeometry>
        </mxCell>
        <mxCell id="CD8L7suRbJ-PH4t4VhtS-110" value="" style="endArrow=none;html=1;rounded=0;exitX=0.397;exitY=1.013;exitDx=0;exitDy=0;exitPerimeter=0;" edge="1" parent="WIyWlLk6GJQsqaUBKTNV-1" source="CD8L7suRbJ-PH4t4VhtS-55">
          <mxGeometry width="50" height="50" relative="1" as="geometry">
            <mxPoint x="1700" y="1130" as="sourcePoint" />
            <mxPoint x="830" y="440" as="targetPoint" />
            <Array as="points">
              <mxPoint x="1720" y="1150" />
              <mxPoint x="830" y="1150" />
            </Array>
          </mxGeometry>
        </mxCell>
        <mxCell id="CD8L7suRbJ-PH4t4VhtS-111" value="" style="endArrow=none;html=1;rounded=0;exitX=0.5;exitY=1;exitDx=0;exitDy=0;" edge="1" parent="WIyWlLk6GJQsqaUBKTNV-1" source="CD8L7suRbJ-PH4t4VhtS-49">
          <mxGeometry width="50" height="50" relative="1" as="geometry">
            <mxPoint x="1520" y="1050" as="sourcePoint" />
            <mxPoint x="1530" y="1150" as="targetPoint" />
          </mxGeometry>
        </mxCell>
        <mxCell id="CD8L7suRbJ-PH4t4VhtS-112" value="" style="endArrow=none;html=1;rounded=0;exitX=0.405;exitY=1.052;exitDx=0;exitDy=0;exitPerimeter=0;" edge="1" parent="WIyWlLk6GJQsqaUBKTNV-1" source="CD8L7suRbJ-PH4t4VhtS-47">
          <mxGeometry width="50" height="50" relative="1" as="geometry">
            <mxPoint x="1320" y="1000" as="sourcePoint" />
            <mxPoint x="1330" y="1150" as="targetPoint" />
          </mxGeometry>
        </mxCell>
        <mxCell id="CD8L7suRbJ-PH4t4VhtS-113" value="" style="endArrow=none;html=1;rounded=0;exitX=0.5;exitY=1;exitDx=0;exitDy=0;" edge="1" parent="WIyWlLk6GJQsqaUBKTNV-1" source="CD8L7suRbJ-PH4t4VhtS-45">
          <mxGeometry width="50" height="50" relative="1" as="geometry">
            <mxPoint x="1180" y="1030" as="sourcePoint" />
            <mxPoint x="1160" y="1150" as="targetPoint" />
          </mxGeometry>
        </mxCell>
        <mxCell id="CD8L7suRbJ-PH4t4VhtS-114" value="" style="endArrow=none;html=1;rounded=0;exitX=0.5;exitY=1;exitDx=0;exitDy=0;" edge="1" parent="WIyWlLk6GJQsqaUBKTNV-1" source="CD8L7suRbJ-PH4t4VhtS-41">
          <mxGeometry width="50" height="50" relative="1" as="geometry">
            <mxPoint x="970" y="1060" as="sourcePoint" />
            <mxPoint x="980" y="1150" as="targetPoint" />
          </mxGeometry>
        </mxCell>
        <mxCell id="CD8L7suRbJ-PH4t4VhtS-115" value="" style="endArrow=classic;html=1;rounded=0;" edge="1" parent="WIyWlLk6GJQsqaUBKTNV-1">
          <mxGeometry width="50" height="50" relative="1" as="geometry">
            <mxPoint x="830" y="440" as="sourcePoint" />
            <mxPoint x="980" y="440" as="targetPoint" />
          </mxGeometry>
        </mxCell>
        <mxCell id="CD8L7suRbJ-PH4t4VhtS-118" value="" style="endArrow=none;html=1;rounded=0;exitX=0;exitY=0.5;exitDx=0;exitDy=0;" edge="1" parent="WIyWlLk6GJQsqaUBKTNV-1" source="CD8L7suRbJ-PH4t4VhtS-69">
          <mxGeometry width="50" height="50" relative="1" as="geometry">
            <mxPoint x="110" y="680" as="sourcePoint" />
            <mxPoint x="40" y="1470" as="targetPoint" />
            <Array as="points">
              <mxPoint x="40" y="670" />
              <mxPoint x="40" y="1470" />
            </Array>
          </mxGeometry>
        </mxCell>
        <mxCell id="CD8L7suRbJ-PH4t4VhtS-119" value="" style="endArrow=classic;html=1;rounded=0;entryX=0;entryY=0.5;entryDx=0;entryDy=0;entryPerimeter=0;" edge="1" parent="WIyWlLk6GJQsqaUBKTNV-1" target="CD8L7suRbJ-PH4t4VhtS-90">
          <mxGeometry width="50" height="50" relative="1" as="geometry">
            <mxPoint x="40" y="1470" as="sourcePoint" />
            <mxPoint x="160" y="1400" as="targetPoint" />
          </mxGeometry>
        </mxCell>
        <mxCell id="CD8L7suRbJ-PH4t4VhtS-120" value="" style="endArrow=none;html=1;rounded=0;exitX=1;exitY=0.5;exitDx=0;exitDy=0;" edge="1" parent="WIyWlLk6GJQsqaUBKTNV-1" source="CD8L7suRbJ-PH4t4VhtS-57">
          <mxGeometry width="50" height="50" relative="1" as="geometry">
            <mxPoint x="2180" y="750" as="sourcePoint" />
            <mxPoint x="2190" y="1470" as="targetPoint" />
            <Array as="points">
              <mxPoint x="2190" y="680" />
            </Array>
          </mxGeometry>
        </mxCell>
        <mxCell id="CD8L7suRbJ-PH4t4VhtS-121" value="" style="endArrow=classic;html=1;rounded=0;entryX=1;entryY=0.5;entryDx=0;entryDy=0;entryPerimeter=0;" edge="1" parent="WIyWlLk6GJQsqaUBKTNV-1" target="CD8L7suRbJ-PH4t4VhtS-90">
          <mxGeometry width="50" height="50" relative="1" as="geometry">
            <mxPoint x="2190" y="1470" as="sourcePoint" />
            <mxPoint x="1930" y="1440" as="targetPoint" />
          </mxGeometry>
        </mxCell>
        <mxCell id="CD8L7suRbJ-PH4t4VhtS-124" value="Exit" style="rhombus;whiteSpace=wrap;html=1;strokeWidth=2;" vertex="1" parent="WIyWlLk6GJQsqaUBKTNV-1">
          <mxGeometry x="900" y="180" width="80" height="80" as="geometry" />
        </mxCell>
        <mxCell id="CD8L7suRbJ-PH4t4VhtS-126" value="" style="endArrow=none;html=1;rounded=0;exitX=1;exitY=0.5;exitDx=0;exitDy=0;" edge="1" parent="WIyWlLk6GJQsqaUBKTNV-1" source="CD8L7suRbJ-PH4t4VhtS-124">
          <mxGeometry width="50" height="50" relative="1" as="geometry">
            <mxPoint x="1090" y="230" as="sourcePoint" />
            <mxPoint x="2190" y="680" as="targetPoint" />
            <Array as="points">
              <mxPoint x="2190" y="220" />
            </Array>
          </mxGeometry>
        </mxCell>
      </root>
    </mxGraphModel>
  </diagram>
</mxfile>
